<svg xmlns="http://www.w3.org/2000/svg" width="1200" height="630" viewBox="0 0 1200 630">
  <defs>
    <linearGradient id="bg" x1="0%" y1="0%" x2="100%" y2="100%">
      <stop offset="0%" stop-color="#6366f1"/>
      <stop offset="100%" stop-color="#4f46e5"/>
    </linearGradient>
  </defs>
  <rect width="1200" height="630" fill="url(#bg)"/>
  <rect x="80" y="115" width="200" height="200" rx="16" fill="#ffffff" opacity="0.95"/>
  <rect x="100" y="135" width="70" height="70" rx="4" fill="#6366f1"/>
  <rect x="115" y="150" width="40" height="40" rx="2" fill="#ffffff"/>
  <rect x="190" y="135" width="70" height="70" rx="4" fill="#6366f1"/>
  <rect x="205" y="150" width="40" height="40" rx="2" fill="#ffffff"/>
  <rect x="100" y="225" width="70" height="70" rx="4" fill="#6366f1"/>
  <rect x="115" y="240" width="40" height="40" rx="2" fill="#ffffff"/>
  <rect x="190" y="225" width="20" height="20" fill="#6366f1"/>
  <rect x="220" y="225" width="20" height="20" fill="#6366f1"/>
  <rect x="190" y="255" width="20" height="20" fill="#6366f1"/>
  <rect x="240" y="255" width="20" height="20" fill="#6366f1"/>
  <text x="340" y="220" font-family="Inter, system-ui, sans-serif" font-size="64" font-weight="700" fill="#ffffff">Free QR Code Generator</text>
  <text x="340" y="290" font-family="Inter, system-ui, sans-serif" font-size="28" fill="#e0e7ff">Create custom QR codes  100% free, client-side</text>
  <text x="340" y="350" font-family="Inter, system-ui, sans-serif" font-size="22" fill="#c7d2fe">URL · WiFi · vCard · Social · Batch · PNG/SVG/PDF</text>
</svg>
